<svg xmlns="http://www.w3.org/2000/svg" width="500" height="500"><path style="stroke:none;fill-rule:nonzero;fill:#3580ac;fill-opacity:1" d="M400.5 396.418c-.445-.027-.887-.055-1.418-.418-.441-.906-.793-1.48-1.14-2.05-.212.14-.419.28-.63.421l1.172 1.547c-.597-.023-1.195-.047-1.89-.41-.453-.914-.805-1.488-1.153-2.059l-.628.422 1.171 1.547c-.597-.023-1.195-.047-1.89-.41-.453-.914-.805-1.488-1.153-2.059l-.628.422 1.171 1.547c-.597-.023-1.195-.047-1.89-.41-.453-.914-.805-1.488-1.153-2.059l-.628.422 1.171 1.547c-.597-.023-1.195-.047-1.89-.41-.453-.914-.805-1.488-1.153-2.059l-.628.422 1.171 1.547c-.597-.023-1.195-.047-1.89-.41a48.737 48.737 0 0 0-.813-2.028l-.68.364.88 1.574c-.754-.02-1.512-.043-2.38-.406-.46-.918-.812-1.492-1.16-2.063l-.628.422 1.171 1.547c-.597-.023-1.195-.047-1.89-.41a48.737 48.737 0 0 0-.813-2.028l-.68.364.88 1.574c-.754-.02-1.512-.043-2.38-.406a57.702 57.702 0 0 0-.82-2.032l-.68.364.88 1.574c-.754-.02-1.512-.043-2.38-.406a57.702 57.702 0 0 0-.82-2.032l-.68.364.88 1.574c-.918-.02-1.836-.04-2.872-.402a70.45 70.45 0 0 0-.828-2.036l-.68.364.88 1.574c-.754-.02-1.512-.043-2.38-.406a57.702 57.702 0 0 0-.82-2.032l-.68.364.88 1.574c-.918-.02-1.836-.04-2.872-.402a70.45 70.45 0 0 0-.828-2.036l-.68.364.88 1.574c-.918-.02-1.836-.04-2.872-.402a70.45 70.45 0 0 0-.828-2.036l-.68.364.88 1.574c-1.083-.016-2.165-.035-3.368-.402a81.45 81.45 0 0 0-.832-2.036l-.68.364.88 1.574c-.918-.02-1.836-.04-2.872-.402a70.45 70.45 0 0 0-.828-2.036l-.68.364.88 1.574c-1.247-.016-2.493-.035-3.864-.398a90.01 90.01 0 0 0-.836-2.04l-.68.364.88 1.574c-1.083-.016-2.165-.035-3.368-.402a81.45 81.45 0 0 0-.832-2.036l-.68.364.88 1.574c-1.41-.016-2.825-.031-4.364-.398a90.01 90.01 0 0 0-.836-2.04l-.68.364.88 1.574c-1.41-.016-2.825-.031-4.364-.398a90.01 90.01 0 0 0-.836-2.04l-.68.364.88 1.574c-1.579-.016-3.157-.031-4.86-.398-.367-.915-.601-1.477-.84-2.04l-.68.364.88 1.574c-1.907-.016-3.817-.027-5.86-.398-.367-.915-.601-1.477-.84-2.04l-.68.364.88 1.574c-2.407-.012-4.817-.027-7.356-.395-.371-.918-.605-1.48-.844-2.043l-.68.364.88 1.574c-2.907-.012-5.813-.027-8.856-.395-.371-.918-.605-1.48-.844-2.043l-.68.364.88 1.574c-5.739-.012-11.481-.027-17.356-.395-.371-.918-.605-1.48-.844-2.043l-.68.364.88 1.574c-4.836.023-9.676.043-14.75-.152-.489-.727-.747-1.243-1.004-1.754-.215.133-.43.265-.641.402.312.543.625 1.09.937 1.637-1.277.148-2.55.414-3.832.43-4.074.046-8.148.007-12.46-.215-.489-.727-.747-1.243-1.004-1.754-.215.133-.426.27-.637.406.312.543.62 1.09.933 1.633-.527.148-1.05.402-1.59.433-8.745.524-17.53.696-26.238 1.606-10.945 1.14-21.89 2.523-32.726 4.445-15.102 2.68-30.203 5.52-45.117 9.086-17.836 4.274-35.301 9.938-52.22 17.098-7.89 3.34-15.753 6.82-23.355 10.758-12.035 6.234-23.652 13.195-33.105 23.152-1.574 1.66-2.957 3.55-4.172 5.496-2.406 3.86-3.262 7.805.688 11.89-4.376-.156-7.633-1.968-10.696-3.882-6.832-4.27-12.539-9.824-16.351-16.953-4.891-9.153-4.758-17.696 3.175-25.801 6.032-6.164 13.094-10.785 20.598-14.863 15.27-8.301 31.594-13.97 48.078-19.22 6.254-1.991 12.75-3.26 18.918-5.468 3.063-1.094 5.828-3.328 8.383-5.457 7.422-6.187 14.86-12.375 21.93-18.945a675.683 675.683 0 0 0 24.957-24.446c7.785-8.023 15.234-16.375 22.726-24.675 6.2-6.871 12.281-13.852 18.356-20.836 4.496-5.164 8.898-10.414 13.597-15.93-1.828.168-3.457.297-5.078.465-6.308.644-12.605 1.375-18.918 1.926-3.793.332-7.605.437-11.414.554-2.664.082-5.332-.004-7.996.02-12.176.11-24.266-.711-36.336-2.426-11.754-1.672-23.25-4.289-34.496-8.027-11.7-3.887-22.855-8.957-33-16.031-9.254-6.458-17.402-14.067-22.215-24.47-1.87-4.042-3.183-8.515-3.77-12.925-.765-5.734 2.34-10.64 5.044-15.465 6.008-10.726 15.53-16.492 27.246-19.07 1.52-.336 3.101-.383 4.828-.371-1.234 1.074-1.738 2.066-.207 3.308-2.277 2.02-4.805 3.82-6.781 6.102-3.875 4.465-3.903 9.707-2.368 15.144 1.95 6.915 5.782 12.649 10.524 17.965 8.387 9.407 18.723 16.125 29.863 21.59 13.278 6.516 27.293 10.996 41.965 13.168 6.668.988 13.36 2.04 20.074 2.422 9.035.516 18.13.855 27.156.453 8.364-.379 16.672-1.836 25.008-2.808.907-.106 1.82-.176 2.73-.18 4.876-.028 6.294-4.375 8.645-7.258 7.024-8.613 13.735-17.477 20.52-26.277 6.234-8.082 12.387-16.23 18.617-24.317 6.078-7.89 12.21-15.746 18.328-23.61 5.762-7.405 11.48-14.85 17.317-22.194a1042.52 1042.52 0 0 1 15.777-19.368c6.45-7.73 12.984-15.39 19.539-23.035 2.91-3.386 5.867-6.75 8.965-9.965 7.683-7.96 15.242-16.062 23.258-23.68 11.066-10.519 22.726-20.386 35.601-28.683 10.918-7.035 22.363-13.055 35.211-15.687 11.61-2.38 23.258-2.711 34.024 3.27 10.015 5.562 15.539 14.171 16.003 25.862.543 13.555-3.343 26.012-8.808 38.176-5.645 12.559-13.211 23.918-21.508 34.801-3.902 5.117-8.215 9.937-12.598 14.652-5.77 6.215-11.625 12.368-17.757 18.22-4.754 4.534-9.954 8.612-15.024 12.812-5.691 4.718-11.226 9.675-17.242 13.945-10.867 7.71-21.762 15.46-33.168 22.328-12.711 7.652-25.754 14.844-39.106 21.3-12.878 6.227-26.222 11.54-39.57 16.723-9.262 3.598-18.805 6.528-28.36 9.278-3.577 1.027-5.081 3.804-7.195 6.074-3.761 4.043-7.14 8.438-10.796 12.582-6.895 7.816-13.86 15.57-20.825 23.32a299.247 299.247 0 0 1-7.125 7.645c-5.714 5.922-11.367 11.914-17.23 17.687-6.625 6.524-13.195 13.145-20.254 19.176-9.894 8.45-20.223 16.39-30.355 24.563-.168.132-.223.402-.383.714 7.566-1.144 15.008-2.378 22.48-3.367 5.227-.695 10.485-1.191 15.746-1.543 9.075-.605 18.16-1.207 27.25-1.488 11.301-.348 22.61-.527 33.918-.48 7.196.03 14.395.507 21.582.968a994.98 994.98 0 0 1 26.418 2.016c7.625.691 15.246 1.488 22.832 2.504 8.547 1.144 17.067 2.492 25.57 3.926 9.31 1.57 18.641 3.086 27.86 5.082 10.828 2.34 21.672 4.754 32.281 7.906 11.48 3.418 22.824 7.398 33.98 11.77 6.329 2.48 12.16 6.238 18.196 9.714-.336.34-.687.512-.96.426-9.216-2.941-18.395-6.02-27.653-8.836-5.824-1.773-11.766-3.156-17.957-4.797l.738 2.18c-.445-.027-.887-.055-1.418-.426-.125-3.05-2.383-1.808-3.828-2.683l.746 2.109c-.445-.027-.887-.055-1.418-.426-.125-3.05-2.383-1.808-3.828-2.683l.746 2.109m-12.992-219.176c5.11-4.441 10.512-8.597 15.265-13.39 9.348-9.426 18.551-19.016 27.391-28.915 5.691-6.367 10.848-13.253 15.863-20.18C454.16 103.52 461.38 91.7 466.793 78.88c3.512-8.317 6.523-16.828 5.656-26.074-.418-4.47-1.652-8.782-5.414-11.782-4.848-3.867-9.926-2.644-14.879-.332-8.875 4.133-16.148 10.555-23.152 17.176-6.945 6.559-13.453 13.586-20.07 20.488-2.977 3.102-5.809 6.348-8.606 9.614a2637.297 2637.297 0 0 0-16.305 19.265c-5.144 6.125-10.3 12.243-15.351 18.446-5.977 7.343-11.848 14.777-17.77 22.164-4.945 6.172-9.914 12.328-14.851 18.504-5.707 7.14-11.39 14.297-17.09 21.437-5.188 6.5-10.344 13.028-15.59 19.477-6.293 7.742-12.676 15.406-18.996 23.125-2.2 2.687-4.324 5.433-6.484 8.156.152.21.308.426.46.64 1.754-.581 3.532-1.101 5.262-1.753 14.188-5.36 28.11-11.293 41.532-18.418 14.503-7.696 28.503-16.18 41.793-25.805 6.93-5.016 13.554-10.46 20.57-15.965zm0 0"/></svg>